<?xml version="1.0" encoding="UTF-8"?>
<svg width="789px" height="215px" viewBox="0 0 789 215" version="1.1" xmlns="http://www.w3.org/2000/svg" xmlns:xlink="http://www.w3.org/1999/xlink">
    <!-- Generator: Sketch 59 (86127) - https://sketch.com -->
    <title>wmca-logo</title>
    <desc>Created with Sketch.</desc>
    <g id="wmca-logo" stroke="none" stroke-width="1" fill="none" fill-rule="evenodd">
        <path d="M420.000383,109.230326 C432.692848,109.230326 440.027842,117.619163 440.027842,131.252279 L440.027842,134.205953 L407.10613,134.175814 C407.10613,144.131907 412.060026,149.838326 421.483525,149.838326 C427.133589,149.838326 430.412644,148.27107 434.276884,144.684465 L439.139974,148.642791 C434.17599,153.25414 429.514687,155.675349 421.291826,155.675349 C408.296679,155.675349 399.962835,148.492093 399.962835,132.45786 C399.962835,117.709581 407.600511,109.230326 420.000383,109.230326 Z M768.780843,109.230326 C781.483397,109.230326 788.818391,117.619163 788.818391,131.252279 L788.818391,134.205953 L755.896679,134.175814 C755.896679,144.131907 760.850575,149.838326 770.274074,149.838326 C775.924138,149.838326 779.203193,148.27107 783.067433,144.684465 L787.930524,148.642791 C782.966539,153.25414 778.305236,155.675349 770.072286,155.675349 C757.077139,155.675349 748.753384,148.492093 748.753384,132.45786 C748.753384,117.709581 756.39106,109.230326 768.780843,109.230326 Z M730.209068,109.200186 C736.948787,109.200186 741.216603,110.85786 746.271392,115.931349 L741.418391,120.170977 C737.745849,116.393488 734.87037,115.097488 730.209068,115.097488 C725.547765,115.097488 721.481737,116.855628 718.898851,120.261395 C716.618646,123.205023 715.730779,126.711256 715.730779,132.427721 C715.730779,138.144186 716.618646,141.640372 718.898851,144.584 C721.481737,147.999814 725.446871,149.747907 730.209068,149.747907 C734.971264,149.747907 737.745849,148.371535 741.418391,144.584 L746.271392,148.914047 C741.216603,153.987535 736.948787,155.645209 730.209068,155.645209 C717.910089,155.645209 708.587484,147.909395 708.587484,132.427721 C708.587484,116.946047 717.910089,109.200186 730.209068,109.200186 Z M633.764496,109.220279 C646.951341,109.220279 653.297573,114.565023 653.297573,124.340279 L653.297573,155.112744 L646.204725,155.092651 L646.204725,150.762605 C642.340485,154.359256 638.667944,155.645209 632.079566,155.645209 C625.329757,155.645209 621.667305,154.540093 618.287356,151.496 C615.81349,149.078762 614.482879,145.731702 614.624904,142.283349 C614.624904,134.24614 620.678544,129.222884 631.585185,129.222884 L646.154278,129.222884 L646.154278,124.892837 C646.154278,118.342512 642.683525,114.936744 633.663602,114.936744 C627.519157,114.936744 624.340996,116.413581 621.364623,120.19107 L616.501533,116.04186 C620.769349,110.787535 625.733333,109.220279 633.764496,109.220279 Z M520.218391,109.220279 C533.405236,109.220279 539.761558,114.565023 539.761558,124.340279 L539.761558,155.112744 L532.658621,155.092651 L532.658621,150.762605 C528.784291,154.359256 525.121839,155.645209 518.533461,155.645209 C511.793742,155.645209 508.121201,154.540093 504.751341,151.496 C502.270526,149.082658 500.935563,145.733872 501.078799,142.283349 C501.078799,134.24614 507.132439,129.222884 518.03908,129.222884 L532.618263,129.222884 L532.618263,124.892837 C532.618263,118.342512 529.14751,114.936744 520.117497,114.936744 C513.973052,114.936744 510.794891,116.413581 507.818519,120.19107 L502.965517,116.04186 C507.223244,110.787535 512.187229,109.220279 520.218391,109.220279 Z M247.340485,109.200186 C254.080204,109.200186 258.34802,110.85786 263.40281,115.931349 L258.549808,120.170977 C254.877267,116.393488 252.001788,115.097488 247.340485,115.097488 C242.679183,115.097488 238.613155,116.855628 236.030268,120.261395 C233.750064,123.205023 232.862197,126.711256 232.862197,132.427721 C232.862197,138.144186 233.750064,141.640372 236.030268,144.584 C238.613155,147.999814 242.578289,149.747907 247.340485,149.747907 C252.102682,149.747907 254.877267,148.371535 258.549808,144.584 L263.40281,148.914047 C258.307663,153.987535 254.080204,155.645209 247.340485,155.645209 C235.041507,155.645209 225.718902,147.909395 225.718902,132.427721 C225.718902,116.946047 235.041507,109.200186 247.340485,109.200186 Z M285.08493,109.220279 C298.271775,109.220279 304.618008,114.565023 304.618008,124.340279 L304.618008,155.112744 L297.52516,155.092651 L297.52516,150.762605 C293.65083,154.359256 289.988378,155.645209 283.4,155.645209 C276.650192,155.645209 272.987739,154.540093 269.61788,151.496 C267.137065,149.082658 265.802102,145.733872 265.945338,142.283349 C265.945338,134.24614 271.998978,129.222884 282.905619,129.222884 L297.484802,129.222884 L297.484802,124.892837 C297.484802,118.342512 294.014049,114.936744 284.984036,114.936744 C278.839591,114.936744 275.66143,116.413581 272.685057,120.19107 L267.832056,116.04186 C272.089783,110.787535 277.053768,109.220279 285.08493,109.220279 Z M378.936526,109.200186 C385.686335,109.200186 389.954151,110.85786 395.00894,115.931349 L390.145849,120.170977 C386.483397,116.393488 383.597829,115.097488 378.936526,115.097488 C374.275223,115.097488 370.209195,116.855628 367.636398,120.261395 C365.356194,123.205023 364.458238,126.711256 364.458238,132.427721 C364.458238,138.144186 365.356194,141.640372 367.636398,144.584 C370.209195,147.999814 374.184419,149.747907 378.936526,149.747907 C383.688633,149.747907 386.483397,148.371535 390.145849,144.584 L395.00894,148.914047 C389.954151,153.987535 385.686335,155.645209 378.936526,155.645209 C366.647637,155.645209 357.325032,147.909395 357.325032,132.427721 C357.325032,116.946047 366.647637,109.200186 378.936526,109.200186 Z M684.766411,109.240372 C690.022989,109.240372 694.290805,110.717209 697.257088,113.48 C700.737931,116.614512 702.301788,120.85414 702.301788,126.108465 L702.301788,155.132837 L695.178672,155.092651 L695.178672,127.173395 C695.178672,119.136186 690.517369,115.117581 683.182375,115.117581 C675.847382,115.117581 671.075096,119.266791 671.075096,127.173395 L671.075096,155.092651 L663.94189,155.092651 L663.94189,109.752744 L671.075096,109.752744 L671.075096,114.776 C674.644592,111.081828 679.620963,109.069798 684.766411,109.240372 Z M605.150958,109.752744 L605.150958,155.092651 L598.007663,155.122791 L598.007663,109.752744 L605.150958,109.752744 Z M471.072925,109.250419 C475.734227,109.250419 479.305875,110.25507 482.776628,113.490047 L477.520051,118.422884 C475.354762,116.106301 472.256322,114.884741 469.085313,115.097488 C461.952107,115.097488 457.381609,120.351814 457.381609,127.263814 L457.381609,155.092651 L450.248404,155.092651 L450.248404,109.752744 L457.381609,109.752744 L457.381609,115.338605 C460.06539,111.561116 465.453129,109.250419 471.072925,109.250419 Z M558.245338,89.4889302 L558.245338,142.735442 C558.245338,147.155907 559.829374,149.36614 564.783269,149.36614 L568.657599,149.36614 L568.657599,155.082605 L563.501916,155.092651 C554.966284,155.092651 551.102043,149.928744 551.102043,143.036837 L551.102043,89.4889302 L558.245338,89.4889302 Z M581.450958,89.4889302 L581.450958,142.735442 C581.450958,147.155907 583.034994,149.36614 587.988889,149.36614 L591.863218,149.36614 L591.863218,155.082605 L586.707535,155.092651 C578.171903,155.092651 574.307663,149.928744 574.307663,143.036837 L574.307663,89.4889302 L581.450958,89.4889302 Z M335.996041,109.200186 C341.252618,109.200186 345.520434,110.677023 348.496807,113.439814 C351.967561,116.574326 353.541507,120.813953 353.541507,126.068279 L353.541507,155.092651 L346.408301,155.092651 L346.408301,127.173395 C346.408301,119.136186 341.746999,115.117581 334.412005,115.117581 C327.077011,115.117581 322.304725,119.266791 322.304725,127.173395 L322.304725,155.092651 L315.16143,155.092651 L315.16143,109.752744 L322.304725,109.752744 L322.304725,114.776 C325.86714,111.067047 330.844443,109.040031 335.996041,109.200186 Z M646.204725,134.175814 L632.624393,134.175814 C625.27931,134.175814 621.610132,136.854884 621.616849,142.213023 C621.616849,147.467349 625.087612,149.948837 632.916986,149.948837 C636.952746,149.948837 640.554662,149.587163 643.732822,146.934884 C645.417752,145.458047 646.204725,142.916279 646.204725,139.098605 L646.204725,134.175814 Z M297.52516,134.175814 L283.934738,134.175814 C276.603108,134.175814 272.933929,136.854884 272.927203,142.213023 C272.927203,147.467349 276.397957,149.948837 284.227331,149.948837 C288.263091,149.948837 291.865006,149.587163 295.043167,146.934884 C296.728097,145.458047 297.52516,142.916279 297.52516,139.098605 L297.52516,134.175814 Z M532.658621,134.175814 L519.068199,134.175814 C511.729842,134.175814 508.060664,136.854884 508.060664,142.213023 C508.060664,147.467349 511.531418,149.948837 519.370881,149.948837 C523.406641,149.948837 527.008557,149.587163 530.176628,146.934884 C531.861558,145.458047 532.658621,142.916279 532.658621,139.098605 L532.658621,134.175814 Z M419.995338,114.830626 C415.220574,114.830626 410.834781,117.451931 408.589272,121.647814 C407.398723,124.038884 407.307918,125.515721 407.10613,129.202791 L432.985441,129.202791 C432.692848,125.515721 432.591954,124.038884 431.401405,121.647814 C429.155896,117.451931 424.770103,114.830626 419.995338,114.830626 Z M768.785888,114.830626 C764.011123,114.830626 759.62533,117.451931 757.379821,121.647814 C756.189272,124.038884 756.088378,125.515721 755.896679,129.202791 L781.77599,129.202791 C781.483397,125.515721 781.382503,124.038884 780.191954,121.647814 C777.946445,117.451931 773.560653,114.830626 768.785888,114.830626 Z M605.685696,89.3884651 L605.685696,96.8530233 L597.614176,96.8530233 L597.614176,89.3884651 L605.685696,89.3884651 Z" id="Cancer-Alliance" fill="#00468B" fill-rule="nonzero"></path>
        <path d="M278.960664,63.2474419 C285.407791,63.2474419 289.433461,67.6277209 289.433461,74.7707907 L289.433461,76.307907 L272.210856,76.307907 C272.210856,81.512 274.803831,84.5058605 279.737548,84.5058605 C282.256134,84.6179214 284.698649,83.6311287 286.42682,81.8033488 L288.969349,83.8829767 C286.525756,86.3795173 283.123359,87.7112754 279.626564,87.539907 C272.836398,87.539907 268.477778,83.7825116 268.477778,75.3936744 C268.477778,67.6779535 272.513538,63.2474419 278.960664,63.2474419 Z M539.822095,65.7992558 L537.38046,68.12 C535.374316,66.7918911 532.997238,66.130686 530.590294,66.2312558 C526.857216,66.2312558 524.879693,67.6779535 524.879693,70.1393488 C524.879693,72.2591628 526.28212,73.324093 529.450192,73.6154419 L533.485951,73.9469767 C537.945466,74.3387907 541.002554,75.875907 541.002554,80.3566512 C541.002554,84.8373953 536.775096,87.539907 530.590294,87.539907 C526.231673,87.539907 522.861814,86.6256744 520.107407,84.124093 L522.599489,81.8033488 C524.566922,83.7322791 527.371775,84.556093 530.539847,84.556093 C534.787484,84.556093 537.330013,83.1596279 537.330013,80.3566512 C537.330013,78.2368372 536.089017,77.1317209 533.072286,76.8906047 L528.875096,76.5490233 C523.890932,76.1672558 521.24751,74.1378605 521.24751,70.1895814 C521.24751,65.8494884 525.142018,63.2474419 530.640741,63.2474419 C533.897341,63.091061 537.117586,63.9860781 539.822095,65.7992558 Z M313.405875,65.7992558 L310.96424,68.12 C308.958096,66.7918911 306.581018,66.130686 304.174074,66.2312558 C300.440996,66.2312558 298.463474,67.6779535 298.463474,70.1393488 C298.463474,72.2591628 299.8659,73.324093 303.033972,73.6154419 L307.069732,73.9469767 C311.529246,74.3387907 314.586335,75.875907 314.586335,80.3566512 C314.586335,84.8373953 310.399234,87.539907 304.174074,87.539907 C299.815453,87.539907 296.445594,86.6256744 293.691188,84.124093 L296.183269,81.8033488 C298.150702,83.7322791 300.955556,84.556093 304.123627,84.556093 C308.371264,84.556093 310.913793,83.1596279 310.913793,80.3566512 C310.913793,78.2368372 309.672797,77.1317209 306.666156,76.8906047 L302.458876,76.5490233 C297.474713,76.1672558 294.83129,74.1378605 294.83129,70.1895814 C294.83129,65.8494884 298.725798,63.2474419 304.224521,63.2474419 C307.481121,63.091061 310.701367,63.9860781 313.405875,65.7992558 Z M514.507791,52.9296744 L514.507791,87.2083721 L510.81507,87.2083721 L510.81507,84.3652093 C508.696296,86.8768372 506.466539,87.4997209 503.560792,87.4997209 C501.297112,87.5996354 499.076282,86.8625053 497.325543,85.4301395 C494.783014,83.0189767 494.218008,79.1611163 494.218008,75.3836279 C494.218008,71.6061395 494.783014,67.667907 497.325543,65.3371163 C499.076282,63.9047505 501.297112,63.1676204 503.560792,63.2675349 C506.406003,63.2675349 508.605492,63.840186 510.764623,66.2814884 L510.764623,52.9296744 L514.507791,52.9296744 Z M419.55645,52.9296744 L419.55645,87.2083721 L415.873819,87.2083721 L415.873819,84.3652093 C413.744955,86.8768372 411.515198,87.4997209 408.609451,87.4997209 C406.349063,87.5980846 404.131935,86.8609907 402.384291,85.4301395 C399.841762,83.0189767 399.276756,79.1611163 399.276756,75.3836279 C399.276756,71.6061395 399.841762,67.667907 402.384291,65.3371163 C404.131935,63.9062651 406.349063,63.1691712 408.609451,63.2675349 C411.464751,63.2675349 413.654151,63.840186 415.823372,66.2814884 L415.823372,52.9296744 L419.55645,52.9296744 Z M449.63295,63.2474419 C456.52401,63.2474419 459.853512,66.0403721 459.853512,71.1540465 L459.853512,87.2284651 L456.059898,87.2083721 L456.059898,84.947907 C454.042018,86.8266047 452.125032,87.4997209 448.694636,87.4997209 C445.26424,87.4997209 443.24636,86.9270698 441.480715,85.3296744 C440.185834,84.0643523 439.489375,82.3123561 439.563729,80.5073488 C439.563729,76.3179535 442.731801,73.6656744 448.432312,73.6656744 L456.059898,73.6656744 L456.059898,71.4353488 C456.059898,68.0195349 454.243806,66.2312558 449.521967,66.2312558 C446.313538,66.2312558 444.648787,67.0048372 443.095019,68.984 L440.55249,66.8139535 C442.782248,64.0612093 445.375223,63.2474419 449.63295,63.2474419 Z M324.453768,56.2550698 L324.453768,63.5287442 L329.942401,63.5287442 L329.942401,66.1810233 L324.494125,66.1810233 L324.494125,80.7886512 C324.494125,82.9586977 325.58378,84.2647442 327.974968,84.2647442 L329.942401,84.2647442 L329.942401,87.2786977 L327.258621,87.2083721 C322.9,87.2083721 320.72069,84.3652093 320.72069,80.8489302 L320.72069,66.1810233 L317.502171,66.1810233 L317.502171,63.5287442 L320.72069,63.5287442 L320.72069,56.2550698 L324.453768,56.2550698 Z M431.229885,52.9296744 L431.229885,80.7886512 C431.229885,83.1093953 432.057216,84.2647442 434.660281,84.2647442 L436.678161,84.2647442 L436.678161,87.2786977 L433.984291,87.2083721 C429.514687,87.2083721 427.496807,84.515907 427.496807,80.8991628 L427.496807,52.9296744 L431.229885,52.9296744 Z M392.496679,63.5287442 L392.496679,87.2083721 L388.79387,87.2485581 L388.79387,63.5287442 L392.496679,63.5287442 Z M352.401405,52.9296744 L364.438059,77.2723721 L376.161941,52.9296744 L380.106897,52.9296744 L380.106897,87.2083721 L376.131673,87.2083721 L376.131673,61.0874419 L366.042273,81.7732093 L362.672414,81.7732093 L352.401405,61.0874419 L352.401405,87.2083721 L348.45645,87.2083721 L348.45645,52.9296744 L352.401405,52.9296744 Z M485.087101,65.4275349 C486.901353,67.1369718 487.868185,69.554801 487.730524,72.0381395 L487.730524,87.2083721 L483.997446,87.2083721 L483.997446,72.6409302 C483.997446,68.4515349 481.555811,66.3317209 477.721839,66.3317209 C473.887867,66.3317209 471.385696,68.5017674 471.385696,72.6409302 L471.385696,87.2083721 L467.652618,87.2083721 L467.652618,63.5287442 L471.385696,63.5287442 L471.385696,66.1106977 C473.254702,64.1802357 475.857727,63.1288489 478.54917,63.2173023 C480.932245,63.0936937 483.272194,63.8847438 485.087101,65.4275349 Z M229.209834,52.9296744 L236.423755,80.5977674 L244.5659,52.9296744 L248.09719,52.9296744 L256.289783,80.5977674 L263.503704,52.9296744 L267.710983,52.9296744 L258.307663,87.2083721 L254.574585,87.2083721 L246.371903,59.7311628 L238.17931,87.2083721 L234.496679,87.2083721 L225.012644,52.9296744 L229.209834,52.9296744 Z M456.059898,76.2677209 L448.997318,76.2677209 C445.149894,76.2677209 443.229544,77.6675349 443.236253,80.4671628 C443.236253,83.2098605 445.052363,84.4857674 449.148659,84.4857674 C451.277522,84.4857674 453.184419,84.2948837 454.808812,82.8883721 C455.68659,82.1248372 456.100255,80.7685581 456.100255,78.7893953 L456.059898,76.2677209 Z M409.436782,66.2915349 C403.93371,66.2915349 403.039781,70.5705873 403.010592,75.0950604 L403.009834,75.3333953 C403.009834,79.9447442 403.837165,84.3752558 409.436782,84.3752558 C415.036398,84.3752558 415.823372,79.9447442 415.823372,75.3333953 C415.823372,70.7220465 414.996041,66.3317209 409.436782,66.3317209 L409.436782,66.2915349 Z M504.388123,66.2915349 C498.778416,66.2915349 497.951086,70.7220465 497.951086,75.3333953 C497.951086,79.9447442 498.778416,84.3752558 504.388123,84.3752558 C509.902749,84.3752558 510.737239,80.0936583 510.763943,75.5676942 L510.764623,75.3333953 C510.764623,70.7220465 509.937292,66.3317209 504.388123,66.3317209 L504.388123,66.2915349 Z M278.955619,66.1778762 C276.456616,66.1778762 274.161476,67.5507035 272.987739,69.7475349 C272.417694,70.9871188 272.151428,72.3437805 272.210856,73.7058605 L285.75083,73.7058605 C285.776559,72.3413435 285.493808,70.9885308 284.923499,69.7475349 C283.749763,67.5507035 281.454623,66.1778762 278.955619,66.1778762 Z M392.789272,52.8794419 L392.789272,56.7875349 L388.581992,56.7875349 L388.581992,52.8794419 L392.789272,52.8794419 Z" id="West-Midlands" fill="#00B3DC" fill-rule="nonzero"></path>
        <g id="Graphic" transform="translate(-0.005089, 0.001184)" fill-rule="nonzero">
            <path d="M128.512624,46.0164902 C90.9699676,46.0164902 64.7476176,73.3028158 64.7476176,106.617048 C64.7476176,139.710258 91.4542588,166.54449 124.184272,166.54449 C139.106494,166.54449 152.585932,161.631746 161.969074,152.017234 C161.969074,158.678072 167.780568,164.073048 174.96422,164.073048 L192.045574,164.073048 L192.045574,106.607002 C192.045574,73.2927693 165.813135,46.0064437 128.482356,46.0064437 M128.482356,139.258165 C110.916711,139.258165 96.7209254,125.193048 96.7209254,106.828025 C96.7209254,87.8200251 110.916711,73.7348158 128.482356,73.7348158 C146.048001,73.7348158 160.253876,88.4931414 160.253876,106.828025 C160.253876,124.720862 146.048001,139.258165 128.482356,139.258165" id="Shape" fill="#00468B"></path>
            <path d="M68.2990863,34.4228158 C69.4022934,34.6922862 70.5330841,34.833877 71.6689459,34.8447693 C78.7315257,34.8447693 84.5127517,29.9722111 85.4813341,23.6630018 C87.558297,24.9183311 89.9427727,25.5788355 92.3723941,25.571839 C98.9204146,25.571839 104.247618,20.9203042 104.87316,14.9828158 C106.885394,18.3295357 110.530914,20.3606659 114.448001,20.3175135 C120.501641,20.3175135 125.374821,15.7764902 125.374821,10.1604902 C125.374821,4.5444902 120.481462,0.00346694817 114.448001,0.00346694817 C109.199888,-0.12910986 104.632553,3.55436456 103.672522,8.69369951 C101.420979,4.58376076 97.0737273,2.0483368 92.3723941,2.10318788 C86.5843446,1.96785416 81.4664387,5.82327527 80.0229688,11.4062576 C77.5721001,9.6964766 74.6513655,8.7808297 71.6588565,8.78411811 C64.4348462,8.78411811 58.5426368,13.8576065 57.7859318,20.367746 C56.3114215,19.9136593 54.778913,19.6734252 53.2356125,19.6544437 C44.8815895,19.6544437 38.1015129,25.94356 38.1015129,33.71956 C38.1015129,33.8602111 38.1015129,34.0008623 38.1519599,34.1415135 L37.9602613,34.1415135 C29.1522153,34.1415135 21.9988309,40.7822576 21.9988309,48.9701646 C22.0063289,49.9846006 22.1247364,50.9952078 22.3519599,51.9841181 C15.2893801,53.7121181 9.96217701,59.659653 9.96217701,66.8127693 C9.96896651,68.8947772 10.426671,70.9508324 11.3040672,72.8406763 C6.01985852,75.3978765 2.62693687,80.6947416 2.5262894,86.5441181 C2.53704325,89.8144167 3.62518756,92.9908562 5.62373512,95.5859786 C2.06820889,98.4311232 0,102.728115 0,107.270072 C0,111.812028 2.06820889,116.10902 5.62373512,118.954165 C3.61890674,121.546579 2.5268592,124.724063 2.5162,127.996025 C2.61871295,133.839511 6.00680103,139.131034 11.2838884,141.68942 C10.400891,143.577772 9.93963235,145.634329 9.93190881,147.717327 C9.93190881,154.870444 15.1985755,160.777793 22.3116023,162.566072 C22.0843788,163.554982 21.9659713,164.565589 21.9584733,165.580025 C21.9584733,173.788025 29.1219471,180.438816 37.9602613,180.438816 L38.1015129,180.438816 C38.1015129,180.56942 38.1015129,180.689979 38.1015129,180.820583 C38.1015129,188.60663 44.8916789,194.8857 53.2356125,194.8857 C54.7543953,194.868451 56.2628962,194.635018 57.715306,194.19249 C58.5426368,200.833234 64.4146674,205.896676 71.6588565,205.896676 C74.628166,205.900563 77.5281735,205.003419 79.9725218,203.324769 C81.4537758,208.889917 86.5718642,212.719435 92.3522153,212.587653 C97.005369,212.641228 101.317846,210.164873 103.601896,206.127746 C104.653618,211.205991 109.201832,214.808798 114.407643,214.687374 C120.461283,214.687374 125.38491,210.116211 125.38491,204.480118 C125.38491,198.844025 120.471372,194.282909 114.407643,194.282909 C110.542492,194.249485 106.938287,196.220898 104.893339,199.487002 C104.176992,193.599746 98.8396994,189.018537 92.3522153,189.018537 C89.9464949,189.017039 87.5855658,189.666399 85.5216917,190.897234 C84.5127517,184.598072 78.7214363,179.745606 71.6588565,179.745606 C70.5474305,179.755532 69.4406806,179.890338 68.3596227,180.147467 C67.9156891,172.924025 61.6703507,167.17742 53.8712447,166.886072 C53.8712447,166.484211 54.0024069,166.102444 54.0024069,165.700583 C54.0024069,158.96942 49.1695844,153.363467 42.5812064,151.524955 C42.9266,150.308364 43.1097804,149.051819 43.126034,147.787653 C43.0264379,142.186052 39.844439,137.091796 34.8426368,134.526258 C35.8333205,132.501476 36.3474507,130.278467 36.3459573,128.026165 C36.3035096,123.576355 34.3049356,119.368551 30.8775027,116.512862 C35.1744543,111.116286 35.1744543,103.484137 30.8775027,98.08756 C34.2996049,95.2364154 36.2976274,91.0371138 36.3459573,86.5943507 C36.3344666,84.3334175 35.799304,82.1056028 34.7821004,80.0842111 C39.7815307,77.5227154 42.9607287,72.4305972 43.0554082,66.8328623 C43.0391054,65.5654002 42.8559343,64.3055407 42.5105806,63.0855135 C49.0888692,61.2570483 53.9216917,55.6510949 53.9216917,48.9400251 C53.9216917,48.5180716 53.8308871,48.1262576 53.7905295,47.7143507 C61.6199037,47.4430949 67.9156891,41.6864437 68.2789075,34.4228158 M136.755664,195.448304 C131.821947,195.448304 127.816455,199.165513 127.816455,203.756769 C127.816455,208.348025 131.852215,212.065234 136.755664,212.065234 C141.659112,212.065234 145.704961,208.348025 145.704961,203.756769 C145.704961,199.165513 141.669201,195.448304 136.755664,195.448304 M178.606494,28.7163972 C180.429558,28.5962033 181.821994,27.0473977 181.740992,25.2298971 C181.659991,23.4123965 180.135246,21.9924999 178.308656,22.0335827 C176.482066,22.0746654 175.023262,23.5616665 175.024756,25.3809553 C175.095966,27.2836464 176.695196,28.7729067 178.606494,28.7163972 M136.876736,2.59546695 C131.963199,2.59546695 127.967796,6.29258323 127.967796,10.863746 C127.967796,15.4349088 132.003556,19.1320251 136.876736,19.1320251 C141.749916,19.1320251 145.775587,15.4349088 145.775587,10.863746 C145.775587,6.29258323 141.739827,2.59546695 136.876736,2.59546695 M178.566136,185.914165 C176.741036,186.045091 175.354369,187.602358 175.442317,189.422304 C175.530265,191.24225 177.060686,192.659746 178.889978,192.615574 C180.71927,192.571402 182.17889,191.081704 182.178142,189.259653 C182.106988,187.343318 180.490763,185.846347 178.566136,185.914165 M158.558856,10.0298856 C155.280587,10.2589608 152.784608,13.0506055 152.935362,16.3195231 C153.086116,19.5884407 155.828535,22.1405536 159.114092,22.0694902 C162.399649,21.9984268 165.028189,19.3301451 165.036251,16.0577925 C164.980998,14.4028158 164.267278,12.837599 163.052318,11.7069489 C161.837357,10.5762988 160.220834,9.97297498 158.558856,10.0298856 M158.49832,192.575002 C155.225449,192.820127 152.744904,195.617622 152.906026,198.881846 C153.067148,202.146069 155.811241,204.687863 159.092478,204.612222 C162.373715,204.53658 164.996738,201.87106 165.005983,198.602909 C164.869198,195.154151 161.962637,192.461867 158.49832,192.575002" id="Shape" fill="#00B3DC"></path>
        </g>
    </g>
</svg>